{"asset":{"version":"2.0","generator":"babylon.js glTF exporter for 3dsmax 2019 v20200917.1"},"scene":0,"scenes":[{"nodes":[0,1]}],"nodes":[{"mesh":0,"translation":[0.0,0.0,1.89290781E-16],"name":"MorphFrom001"},{"name":"Default light"}],"meshes":[{"primitives":[{"attributes":{"POSITION":1,"NORMAL":2},"indices":0,"material":0}],"name":"MorphFrom001"}],"accessors":[{"bufferView":0,"componentType":5125,"count":228240,"type":"SCALAR","name":"accessorIndices"},{"bufferView":1,"componentType":5126,"count":228240,"max":[0.291111857,0.220674857,0.176037267],"min":[-0.284022033,-0.220673859,-0.21935153],"type":"VEC3","name":"accessorPositions"},{"bufferView":1,"byteOffset":2738880,"componentType":5126,"count":228240,"type":"VEC3","name":"accessorNormals"}],"bufferViews":[{"buffer":0,"byteLength":912960,"name":"bufferViewScalar"},{"buffer":0,"byteOffset":912960,"byteLength":5477760,"byteStride":12,"name":"bufferViewFloatVec3"}],"buffers":[{"uri":"3dmodel2.bin","byteLength":6390720}],"materials":[{"pbrMetallicRoughness":{"baseColorFactor":[0.909804,0.0,0.0,1.0],"metallicFactor":0.0,"roughnessFactor":0.450053632},"name":"Material #28"}]}